PathFileType	4	(X/Y/Z)	C:\Users\chris\Documents\GitHub\baseballds\vids\pitch5_Sports2D\pitch5_Sports2D_px_person00.trc
DataRate	CameraRate	NumFrames	NumMarkers	Units	OrigDataRate	OrigDataStartFrame	OrigNumFrames
30	30	4	22	m	30	111	149
Frame#	Time	Hip			RHip			RKnee			RAnkle			RBigToe			RSmallToe			RHeel			LHip			LKnee			LAnkle			LBigToe			LSmallToe			LHeel			Neck			Head			Nose			RShoulder			RElbow			RWrist			LShoulder			LElbow			LWrist		
		X1	Y1	Z1	X2	Y2	Z2	X3	Y3	Z3	X4	Y4	Z4	X5	Y5	Z5	X6	Y6	Z6	X7	Y7	Z7	X8	Y8	Z8	X9	Y9	Z9	X10	Y10	Z10	X11	Y11	Z11	X12	Y12	Z12	X13	Y13	Z13	X14	Y14	Z14	X15	Y15	Z15	X16	Y16	Z16	X17	Y17	Z17	X18	Y18	Z18	X19	Y19	Z19	X20	Y20	Z20	X21	Y21	Z21	X22	Y22	Z22
111	3.6999999999999997	879.9776636462304	663.5681581344259	0.0	827.1838300117836	674.5075365456586	0.0	750.6504742341801	850.3098393640624	0.0	691.2567218689181	972.3924133920984	0.0	674.7472738239254	1046.3077516045362	0.0	647.7451652846569	1028.788632503435	0.0	693.1607752148387	983.9497807814926	0.0	933.6222247939396	667.5485123304348	0.0	959.5728335592406	861.211999137101	0.0	986.2385521962485	1052.8173005413062	0.0	972.6513545768624	1075.3200456901338	0.0	1007.2249453269037	1078.8780689461455	0.0	985.7739570329892	1067.319362443828	0.0	817.7790441674849	446.5514782624865	0.0	818.7425284395166	311.2012162010501	0.0	875.6835086664844	388.49642910081786	0.0	733.9349025235923	498.9829464775495	0.0	688.5718603535657	610.4349406248087	0.0	663.6000451813165	740.7001511423134	0.0	912.4317265468126	443.004782233163	0.0	1021.5744056401086	500.07880036827595	0.0	1096.7276110769765	566.1288922157712	0.0
112	3.7333333333333334	897.0012531468078	679.7547575722808	0.0	842.5801514366746	691.8947115237162	0.0	750.6739996064002	852.4900330157136	0.0	691.2396773263876	973.4770766463469	0.0	672.3821155946707	1045.6164032035651	0.0	647.2090759986305	1028.3548146048809	0.0	694.8573765829613	986.2713141449121	0.0	953.6410749281189	684.1951128388723	0.0	1006.6016186366331	872.7491968293092	0.0	1065.1186473252812	1052.0271713277202	0.0	1074.197006315348	1074.4166427177113	0.0	1103.3988990968217	1073.7006513486886	0.0	1063.285729216028	1064.6024780857665	0.0	840.7653139837059	463.70525911385903	0.0	843.9656383765325	332.9891736779506	0.0	902.873985919457	407.4083901368506	0.0	755.045686160089	516.7514762450379	0.0	694.071215653493	622.4742022477619	0.0	644.685247144929	749.8858670823537	0.0	935.8736890539756	457.07253056357735	0.0	1046.1248076523045	488.2446986899221	0.0	1154.6712886730652	518.4779118410852	0.0
113	3.7666666666666666	916.7912068760398	695.1615630662368	0.0	860.7902386216165	708.6804132934963	0.0	754.9690470421098	853.1085630913359	0.0	690.0833145239803	975.5874978116206	0.0	671.069994967476	1044.8698595197372	0.0	645.9673715342577	1028.8922502795997	0.0	694.2322412844529	989.5379665691675	0.0	976.230951435794	700.859196072027	0.0	1056.1239621367833	883.4491033206591	0.0	1146.774029204891	1048.796339683558	0.0	1182.49789934179	1072.6879216496945	0.0	1202.5827250673049	1066.0418833423646	0.0	1145.724705645206	1060.8367973505422	0.0	869.2250319500974	477.6908189839252	0.0	875.9401750443772	353.54415318906814	0.0	935.3189927049932	423.3885456633695	0.0	783.5489689624637	526.7218680780005	0.0	704.7226119834597	623.0840511238184	0.0	634.180074251951	744.0132654717913	0.0	965.5512194337825	469.91515703584133	0.0	1079.8741956058618	469.98450825819265	0.0	1202.8064969110949	461.881262063873	0.0
114	3.8	941.7587554474703	707.1887511142994	0.0	884.3255040611783	720.8424533882118	0.0	768.9676278043294	854.6967014837732	0.0	689.1315760814268	977.3304947590227	0.0	671.3738233634489	1045.9551666383234	0.0	645.0303441277185	1030.0062650644754	0.0	690.9529067632373	991.0523434529537	0.0	1002.7245504820369	713.9472731022877	0.0	1107.2492314562983	890.5208406190782	0.0	1226.5184416476177	1046.2735210933242	0.0	1293.1800958712035	1070.616400569192	0.0	1301.7358618526744	1058.0653325124779	0.0	1226.7664807850997	1058.997301341402	0.0	904.2557614286793	488.7710884861026	0.0	913.4901204377564	368.63280204055707	0.0	972.1936681404987	434.73468932019733	0.0	818.3107400975676	529.9930287208152	0.0	723.5172865803319	610.5178220970665	0.0	646.2653275306121	714.6267779239552	0.0	1001.6626577176755	480.154507208671	0.0	1120.0984727006862	451.64622247571765	0.0	1243.2900085975027	410.14831189354186	0.0
